<?xml version="1.0" standalone="no"?>
<!DOCTYPE svg PUBLIC "-//W3C//DTD SVG 20010904//EN"
 "http://www.w3.org/TR/2001/REC-SVG-20010904/DTD/svg10.dtd">
<svg version="1.0" xmlns="http://www.w3.org/2000/svg"
 width="1280.000000pt" height="1280.000000pt" viewBox="0 0 1280.000000 1280.000000"
 preserveAspectRatio="xMidYMid meet">
<metadata>
Created by potrace 1.11, written by Peter Selinger 2001-2013
</metadata>
<g transform="translate(0.000000,1280.000000) scale(0.100000,-0.100000)"
fill="#000000" stroke="none">
<path d="M6227 12775 c-99 -34 -69 -15 -735 -482 -46 -32 -98 -69 -117 -83
-18 -14 -119 -85 -224 -158 -249 -174 -306 -232 -299 -305 3 -34 21 -48 233
-183 1168 -744 1191 -758 1246 -748 146 25 173 40 582 330 93 65 179 126 192
134 12 8 42 29 66 46 578 407 588 415 619 478 26 55 25 82 -2 106 -13 10 -113
76 -223 146 -110 70 -222 141 -250 159 -27 18 -243 155 -480 305 -419 267
-431 274 -486 276 -38 2 -77 -5 -122 -21z"/>
<path d="M8189 11600 c-54 -14 -138 -53 -194 -91 -27 -19 -140 -98 -250 -175
-110 -78 -225 -159 -256 -180 -337 -235 -590 -416 -625 -447 -50 -44 -81 -90
-88 -133 -8 -41 4 -51 217 -187 97 -62 332 -211 523 -332 713 -454 663 -425
720 -425 66 0 164 30 234 73 30 18 208 140 395 272 187 131 432 304 545 383
227 160 284 208 310 266 23 49 18 74 -17 105 -16 13 -329 215 -698 449 -654
415 -671 426 -725 428 -30 2 -71 -1 -91 -6z"/>
<path d="M4404 11496 c-77 -28 -128 -58 -273 -160 -64 -45 -145 -102 -181
-127 -814 -570 -871 -614 -904 -683 -34 -71 -22 -88 120 -177 176 -111 510
-323 559 -354 157 -102 646 -412 680 -432 91 -52 232 -15 405 105 61 42 289
203 714 501 98 69 211 149 250 176 116 80 157 116 188 164 32 51 36 101 11
123 -10 8 -130 86 -268 173 -137 87 -289 183 -337 214 -49 31 -136 87 -195
124 -329 208 -547 347 -560 359 -27 22 -140 19 -209 -6z"/>
<path d="M10078 10365 c-32 -8 -83 -28 -115 -44 -88 -44 -1181 -815 -1235
-870 -57 -58 -79 -118 -56 -153 8 -13 69 -57 134 -98 66 -40 155 -97 199 -126
44 -28 150 -95 235 -149 85 -54 184 -117 220 -140 269 -173 593 -377 612 -384
54 -20 174 7 271 61 116 66 1142 793 1204 854 64 63 86 113 67 154 -5 11 -320
217 -699 459 -757 481 -724 464 -837 436z"/>
<path d="M6280 10307 c-95 -35 -99 -37 -415 -259 -159 -112 -418 -293 -574
-403 -155 -110 -299 -215 -318 -235 -45 -45 -76 -111 -67 -144 6 -24 89 -81
354 -246 56 -35 398 -252 495 -315 44 -29 143 -92 220 -140 77 -49 151 -96
165 -105 14 -10 59 -38 100 -64 70 -44 79 -47 135 -45 64 3 155 31 220 70 22
13 177 120 345 238 168 117 395 277 505 354 339 237 352 248 390 307 35 56 39
85 13 114 -13 13 -329 219 -703 457 l-680 433 -60 3 c-45 3 -76 -2 -125 -20z"/>
<path d="M2554 10206 c-55 -17 -130 -55 -184 -92 -37 -25 -615 -430 -759 -532
-21 -15 -94 -66 -162 -113 -230 -160 -289 -220 -289 -292 0 -42 -1 -41 190
-162 85 -54 191 -121 235 -150 188 -121 756 -481 772 -490 10 -6 50 -31 90
-57 102 -67 127 -78 170 -78 57 0 148 26 212 61 46 24 412 277 576 397 22 16
166 117 320 225 295 207 345 248 376 308 24 47 24 70 2 95 -10 11 -171 117
-358 235 -837 532 -1003 637 -1022 648 -28 14 -117 13 -169 -3z"/>
<path d="M11790 9171 c-78 -39 -1317 -934 -1369 -989 -33 -34 -68 -86 -90
-132 l-36 -75 0 -662 c0 -654 0 -663 20 -683 49 -48 103 -34 238 64 54 39 108
78 120 86 28 19 788 562 802 573 6 4 76 55 156 112 150 106 210 164 253 240
57 103 55 83 56 776 0 659 0 666 -39 696 -23 18 -70 15 -111 -6z"/>
<path d="M8285 9094 c-119 -30 -169 -58 -428 -241 -106 -75 -214 -152 -242
-171 -27 -19 -185 -130 -350 -245 -165 -115 -321 -230 -347 -256 -57 -53 -86
-120 -70 -155 6 -15 221 -157 606 -402 748 -476 766 -487 796 -500 34 -14 96
-10 161 11 101 33 89 26 693 449 73 51 168 118 367 256 277 193 349 270 324
348 -4 13 -163 120 -433 291 -235 149 -431 274 -437 279 -5 4 -127 81 -270
171 -225 142 -266 165 -305 167 -25 2 -54 0 -65 -2z"/>
<path d="M4410 8983 c-30 -7 -82 -29 -115 -47 -88 -49 -1152 -797 -1207 -849
-84 -80 -103 -150 -52 -190 16 -12 36 -26 46 -32 17 -9 728 -461 898 -570 249
-160 409 -260 435 -270 61 -24 181 4 288 67 60 35 1012 702 1054 738 7 5 15
10 18 10 4 0 28 17 53 37 124 98 165 177 120 226 -13 14 -241 163 -508 333
-267 169 -564 358 -662 420 -97 62 -189 119 -205 127 -36 18 -93 18 -163 0z"/>
<path d="M942 8785 c-16 -7 -33 -23 -37 -35 -4 -12 -7 -313 -7 -668 1 -711 -2
-683 63 -783 52 -82 126 -140 479 -376 487 -325 594 -397 600 -403 13 -13 299
-199 329 -215 19 -10 55 -18 79 -19 35 0 48 4 63 23 19 23 19 46 17 695 l-3
671 -29 57 c-49 96 -113 157 -288 275 -90 59 -165 110 -168 113 -7 7 -888 598
-943 632 -58 37 -116 49 -155 33z"/>
<path d="M9913 7845 c-17 -7 -134 -87 -259 -177 -126 -89 -238 -170 -251 -178
-134 -91 -785 -565 -805 -586 -62 -67 -129 -204 -149 -309 -15 -77 -14 -1135
1 -1182 22 -68 72 -107 121 -93 16 5 29 7 29 4 0 -7 52 28 209 141 84 61 170
122 190 136 438 309 868 622 912 663 67 64 132 183 157 287 16 64 18 130 17
633 l0 561 -23 46 c-32 66 -81 84 -149 54z"/>
<path d="M6278 7766 c-95 -33 -84 -27 -608 -396 -309 -218 -306 -216 -485
-340 -82 -58 -175 -130 -207 -160 -75 -75 -95 -148 -50 -177 9 -6 157 -100
327 -208 171 -109 333 -212 360 -230 28 -18 194 -124 370 -235 276 -175 326
-204 367 -208 103 -10 203 34 413 182 83 58 155 108 160 113 6 5 114 81 240
169 127 89 309 216 405 284 96 67 194 141 217 163 52 50 83 109 77 145 -6 29
-9 31 -149 120 -55 35 -127 81 -160 103 -33 21 -294 187 -580 369 l-520 330
-55 0 c-32 0 -83 -10 -122 -24z"/>
<path d="M2808 7535 c-14 -14 -30 -42 -35 -63 -5 -20 -8 -302 -7 -627 1 -584
1 -591 23 -655 29 -84 79 -164 133 -216 24 -23 167 -124 318 -226 151 -102
426 -286 610 -410 184 -124 349 -232 366 -241 51 -26 92 -30 124 -10 61 35 60
32 58 706 l-3 612 -24 60 c-30 75 -77 149 -124 196 -20 19 -164 120 -319 225
-156 104 -287 193 -293 197 -49 39 -675 452 -701 463 -52 22 -97 18 -126 -11z"/>
<path d="M11765 7182 c-17 -10 -183 -128 -370 -262 -187 -134 -357 -255 -377
-269 -258 -181 -556 -402 -586 -436 -60 -68 -91 -135 -126 -270 -13 -51 -15
-142 -13 -625 l2 -565 23 -46 c26 -53 63 -75 111 -64 17 3 120 70 228 148 886
632 1084 775 1125 815 55 53 109 156 138 261 19 70 19 102 17 650 -2 540 -3
578 -21 611 -36 69 -91 88 -151 52z"/>
<path d="M943 6869 c-44 -23 -45 -35 -45 -696 0 -608 1 -630 21 -687 46 -133
108 -197 326 -342 83 -54 152 -101 155 -104 10 -11 900 -606 939 -628 56 -32
90 -40 128 -30 65 17 63 -1 63 701 0 684 1 672 -54 767 -55 97 -102 136 -434
358 -180 121 -451 303 -602 406 -151 102 -303 202 -338 222 -67 39 -124 50
-159 33z"/>
<path d="M7930 6420 c-85 -61 -162 -116 -170 -123 -16 -13 -167 -122 -204
-147 -12 -8 -213 -153 -447 -322 -414 -299 -427 -309 -457 -365 -74 -140 -77
-175 -77 -833 0 -525 1 -569 19 -618 22 -63 65 -98 100 -80 11 6 182 128 380
271 199 143 377 272 397 286 20 14 88 63 150 108 63 45 184 132 269 193 85 62
168 124 183 138 33 31 67 93 90 167 17 50 20 70 35 180 4 33 7 287 7 565 -2
535 -6 588 -48 652 -38 56 -55 51 -227 -72z"/>
<path d="M4680 6387 c-14 -7 -33 -28 -43 -47 -16 -33 -17 -79 -15 -665 l3
-630 42 -85 c72 -147 29 -113 849 -662 341 -229 576 -380 601 -387 53 -14 93
0 118 42 18 30 19 59 20 622 0 325 -3 614 -6 643 -10 72 -66 186 -123 249 -25
28 -92 82 -149 120 -150 102 -646 435 -926 623 -283 190 -315 205 -371 177z"/>
<path d="M9930 5906 c-42 -22 -1313 -934 -1346 -966 -57 -53 -111 -185 -135
-330 -12 -72 -15 -1042 -3 -1107 19 -109 75 -173 131 -152 14 5 246 167 516
361 271 193 508 363 528 377 169 120 280 201 312 230 61 55 112 172 143 326
11 56 12 1059 2 1120 -13 69 -43 130 -74 143 -32 15 -43 15 -74 -2z"/>
<path d="M2822 5674 c-12 -8 -32 -34 -45 -57 -22 -42 -22 -44 -24 -592 -3
-619 -1 -638 67 -780 21 -44 58 -101 82 -127 26 -29 144 -116 298 -219 140
-93 426 -285 635 -424 426 -285 431 -288 491 -232 60 56 61 74 59 686 -1 300
-5 557 -8 570 -32 124 -83 225 -149 294 -37 38 -210 160 -558 393 -278 186
-552 370 -610 408 -151 101 -189 114 -238 80z"/>
<path d="M11745 5336 c-16 -7 -190 -127 -385 -267 -195 -140 -365 -261 -377
-269 -188 -130 -516 -372 -544 -399 -72 -71 -129 -179 -157 -298 -15 -64 -17
-134 -17 -625 1 -544 2 -554 23 -601 36 -81 103 -93 192 -34 195 129 1235 882
1273 922 28 28 65 84 88 130 72 148 72 142 71 772 0 538 -1 563 -20 606 -29
65 -86 90 -147 63z"/>
<path d="M917 5009 c-46 -27 -47 -41 -47 -696 l0 -618 23 -65 c43 -120 96
-185 227 -277 291 -204 1215 -814 1248 -823 49 -15 88 -4 116 34 20 27 21 39
21 634 0 334 -3 629 -7 657 -12 80 -64 172 -137 245 -43 42 -160 127 -336 245
-148 99 -422 283 -610 408 -187 126 -357 237 -377 248 -41 21 -93 24 -121 8z"/>
<path d="M8053 4521 c-51 -17 -79 -37 -823 -574 -510 -368 -530 -385 -603
-519 -58 -105 -58 -100 -55 -771 l3 -617 27 -26 c33 -34 88 -35 150 -3 23 12
193 130 376 263 442 319 700 505 737 530 175 122 258 217 317 366 21 54 21 66
23 655 0 330 -2 614 -7 630 -18 71 -66 93 -145 66z"/>
<path d="M4674 4509 c-18 -5 -35 -19 -42 -35 -9 -19 -12 -196 -12 -675 1 -718
-3 -677 66 -784 51 -79 103 -122 364 -297 135 -90 388 -261 563 -379 175 -118
325 -219 335 -224 9 -6 46 -30 81 -53 121 -79 203 -80 220 -1 4 19 7 322 6
674 l-1 640 -32 68 c-48 104 -130 177 -392 353 -124 82 -408 273 -633 423
-235 158 -425 278 -450 285 -26 8 -53 10 -73 5z"/>
<path d="M9834 3902 c-26 -14 -358 -250 -1071 -761 -83 -59 -166 -125 -185
-146 -84 -97 -154 -260 -174 -410 -7 -56 -8 -969 -1 -1001 28 -118 75 -172
147 -165 52 5 -2 -31 722 486 563 402 581 416 626 482 21 32 48 76 59 98 32
62 72 193 81 265 4 36 7 277 7 535 -1 418 -3 476 -18 520 -10 28 -23 57 -30
65 -39 50 -106 63 -163 32z"/>
<path d="M2842 3753 c-28 -6 -67 -57 -81 -108 -12 -44 -11 -1151 2 -1194 32
-116 85 -215 146 -278 27 -28 223 -165 466 -328 231 -154 422 -282 425 -285
19 -19 393 -262 420 -273 62 -26 109 -7 142 56 22 42 22 43 24 602 1 628 -1
646 -65 779 -47 98 -99 153 -217 233 -788 529 -1186 793 -1198 793 -8 0 -20 2
-28 4 -7 2 -23 1 -36 -1z"/>
<path d="M8029 2566 c-20 -7 -52 -23 -70 -36 -52 -36 -487 -348 -544 -390
-144 -106 -221 -162 -448 -325 -310 -223 -358 -270 -414 -405 l-23 -55 0 -650
c0 -714 -2 -686 60 -700 63 -14 95 6 555 340 110 80 216 156 235 169 19 13 91
64 160 114 69 50 140 101 158 114 18 13 39 28 45 33 7 6 59 44 117 85 161 115
234 196 281 311 22 53 22 62 23 684 1 347 -2 644 -6 660 -9 36 -42 65 -72 65
-11 -1 -37 -7 -57 -14z"/>
<path d="M4657 2486 c-25 -23 -40 -50 -55 -101 -3 -11 -7 -257 -8 -546 -2
-434 0 -538 13 -595 8 -38 16 -78 18 -88 10 -47 89 -186 128 -224 23 -23 110
-88 192 -143 1211 -816 1149 -778 1212 -725 67 57 67 52 68 645 1 547 -2 604
-39 709 -27 75 -78 163 -121 206 -22 22 -218 160 -435 305 -217 146 -498 334
-624 419 -197 133 -236 156 -275 160 -39 3 -50 0 -74 -22z"/>
</g>
</svg>
